Coordinates
version=1
nRows=5
nColumns=40
inDegrees=yes

Units are S.I. units (second, meters, Newtons, ...)
If the header above contains a line with 'inDegrees', this indicates whether rotational values are in degrees (yes) or radians (no).

endheader
time	pelvis_tilt	pelvis_list	pelvis_rotation	pelvis_tx	pelvis_ty	pelvis_tz	hip_flexion_r	hip_adduction_r	hip_rotation_r	knee_angle_r	knee_angle_r_beta	ankle_angle_r	subtalar_angle_r	mtp_angle_r	hip_flexion_l	hip_adduction_l	hip_rotation_l	knee_angle_l	knee_angle_l_beta	ankle_angle_l	subtalar_angle_l	mtp_angle_l	lumbar_extension	lumbar_bending	lumbar_rotation	arm_flex_r	arm_add_r	arm_rot_r	elbow_flex_r	pro_sup_r	wrist_flex_r	wrist_dev_r	arm_flex_l	arm_add_l	arm_rot_l	elbow_flex_l	pro_sup_l	wrist_flex_l	wrist_dev_l
      5.99000000	     -5.96804639	     -0.62459274	      4.87249216	     -0.14601782	      1.31727957	     -0.85355021	      0.79437820	    -10.21311369	    -28.31383096	      6.06987707	      0.10593934	    -31.16221621	      0.00000000	      0.00000000	      1.97111556	    -15.83630163	    -15.33838318	      8.32735880	      0.14533983	    -31.14454070	      0.00000000	      0.00000000	     -0.33764694	     -1.31650617	      2.36670981	    -33.95586059	    -51.42755959	     31.94922233	     96.83501482	     87.54730399	      0.00000000	      0.00000000	    -29.05284353	    -55.08381945	     34.85074243	    100.45808573	     87.43024376	      0.00000000	      0.00000000
      5.99500000	     -6.27316667	     -0.64205342	      4.91828479	     -0.14678603	      1.30855246	     -0.85334368	      1.39380203	    -10.39904991	    -28.30016162	      6.00821064	      0.10486306	    -30.48029788	      0.00000000	      0.00000000	      2.62001055	    -15.90482976	    -14.97986591	      8.47383993	      0.14789641	    -29.82004408	      0.00000000	      0.00000000	     -0.20544151	     -1.32722207	      2.41628485	    -34.39370732	    -51.31311032	     31.44021035	     96.94846571	     87.82961806	      0.00000000	      0.00000000	    -29.19098561	    -54.99703429	     34.62940800	    100.40044153	     87.71703616	      0.00000000	      0.00000000
      6.00000000	     -6.22639936	     -0.65745087	      4.91030706	     -0.14737333	      1.30017095	     -0.85310395	      1.62439564	    -10.56048532	    -28.29547978	      5.93643577	      0.10361035	    -30.37971914	      0.00000000	      0.00000000	      2.80989741	    -16.00492791	    -14.98039617	      8.41669796	      0.14689909	    -29.72478924	      0.00000000	      0.00000000	     -0.47011958	     -1.29715270	      2.47314012	    -34.41418048	    -51.32602842	     31.44483200	     96.94883676	     87.69061332	      0.00000000	      0.00000000	    -29.20368948	    -54.96486138	     34.63300054	    100.38882311	     87.58139727	      0.00000000	      0.00000000
      6.00500000	     -6.52503455	     -0.63022262	      4.97281182	     -0.14821456	      1.29099368	     -0.85294821	      2.18603554	    -10.78195773	    -28.42077910	      5.75777440	      0.10049212	    -29.93578556	      0.00000000	      0.00000000	      3.39426828	    -15.99980656	    -14.61084157	      8.35690589	      0.14585552	    -28.86213916	      0.00000000	      0.00000000	     -0.35946381	     -1.34078086	      2.52614962	    -34.83756437	    -51.18188106	     30.99480018	     97.05812913	     87.83677088	      0.00000000	      0.00000000	    -29.26197563	    -54.85777627	     34.48808721	    100.31188456	     87.70805367	      0.00000000	      0.00000000
      6.01000000	     -6.60549813	     -0.61798949	      4.87718714	     -0.14876791	      1.28198827	     -0.85264790	      2.57405214	    -10.98603606	    -28.28282977	      5.69713728	      0.09943380	    -29.63762901	      0.00000000	      0.00000000	      3.64857047	    -16.05105507	    -14.78860844	      8.23104764	      0.14365888	    -28.44787721	      0.00000000	      0.00000000	     -0.47375382	     -1.35617822	      2.70818712	    -35.01726388	    -51.13277009	     30.85343722	     97.01854567	     87.83635838	      0.00000000	      0.00000000	    -29.39506361	    -54.76375511	     34.31108694	    100.27869267	     87.74544378	      0.00000000	      0.00000000
